<svg id="Layer_1" data-name="Layer 1" xmlns="http://www.w3.org/2000/svg" viewBox="0 0 263 26.96"><path d="M214.64,14.98a4.82,4.82,0,0,1,1.06-3.08,4.8956,4.8956,0,0,1,2.74-1.76,5.8858,5.8858,0,0,1,2.1-3.36,5.9592,5.9592,0,0,1,9.53,3.26h.32a4.9456,4.9456,0,0,1,4.96,4.94,4.9368,4.9368,0,0,1-4.77,4.92c-.13,0-.2-.06-.2-.17V18.4c0-.12.07-.18.2-.18a3.095,3.095,0,0,0,2.18-1.02,3.2715,3.2715,0,0,0-2.39-5.5h-1.61c-.12,0-.18-.06-.18-.17l-.08-.58a4.2553,4.2553,0,0,0-8.47.04l-.06.5a.1767.1767,0,0,1-.2.19l-.53.07a3.0814,3.0814,0,0,0-2.1,1.04,3.2292,3.2292,0,0,0,.05,4.42,3.1354,3.1354,0,0,0,2.18,1.02c.11,0,.17.06.17.18v1.33a.153.153,0,0,1-.17.17,4.7592,4.7592,0,0,1-3.4-1.5A4.969,4.969,0,0,1,214.64,14.98ZM221,19.05a.801.801,0,0,1,.24-.58.7915.7915,0,0,1,.59-.24.8343.8343,0,0,1,.59,1.42.7642.7642,0,0,1-.59.25.779.779,0,0,1-.59-.25A.8141.8141,0,0,1,221,19.05Zm0,3.63a.8033.8033,0,0,1,.82-.83.84.84,0,0,1,.59.23.8452.8452,0,0,1,0,1.18.7835.7835,0,0,1-.59.23.84.84,0,0,1-.59-.23A.8.8,0,0,1,221,22.68Zm3.19-1.7a.8774.8774,0,0,1,.25-.62.7787.7787,0,0,1,.57-.24.8893.8893,0,0,1,.86.86.8536.8536,0,0,1-.86.85.7578.7578,0,0,1-.58-.25A.8468.8468,0,0,1,224.19,20.98Zm0-3.62a.8161.8161,0,0,1,.25-.6.8484.8484,0,0,1,.57-.24.8224.8224,0,0,1,.61.25.8005.8005,0,0,1,.25.6.779.779,0,0,1-.25.59.8534.8534,0,0,1-.61.24.7849.7849,0,0,1-.58-.24A.8468.8468,0,0,1,224.19,17.36Zm0,7.28a.8546.8546,0,0,1,.25-.61.7787.7787,0,0,1,.57-.24.8536.8536,0,0,1,.86.85.779.779,0,0,1-.25.59.8534.8534,0,0,1-.61.24.7849.7849,0,0,1-.58-.24A.8237.8237,0,0,1,224.19,24.64Zm3.22-5.59a.7884.7884,0,0,1,.25-.58.8161.8161,0,0,1,.6-.25.8343.8343,0,0,1,.59,1.42.7642.7642,0,0,1-.59.25.7855.7855,0,0,1-.6-.25A.8165.8165,0,0,1,227.41,19.05Zm0,3.63a.82.82,0,0,1,.85-.83.823.823,0,0,1,.59.23.7689.7689,0,0,1,.23.59.823.823,0,0,1-.23.59.7835.7835,0,0,1-.59.23.8141.8141,0,0,1-.6-.24A.7562.7562,0,0,1,227.41,22.68Z" transform="translate(-4.37 -0.91)"/><path d="M4.37,14.62A.8448.8448,0,0,1,4.62,14a.8641.8641,0,0,1,.6-.24H7.26a.7578.7578,0,0,1,.58.25.9395.9395,0,0,1,.01,1.22.7433.7433,0,0,1-.58.25H5.23a.8161.8161,0,0,1-.6-.25A.8317.8317,0,0,1,4.37,14.62Zm2.86,6.93a.9262.9262,0,0,1,.23-.61l1.47-1.43a.7689.7689,0,0,1,.59-.23.847.847,0,0,1,.6.23.7476.7476,0,0,1,.24.57.9434.9434,0,0,1-.24.64L8.7,22.14a.908.908,0,0,1-1.23,0A.8073.8073,0,0,1,7.23,21.55Zm0-13.84a.9262.9262,0,0,1,.23-.61.96.96,0,0,1,.64-.25.8407.8407,0,0,1,.59.24l1.43,1.47a.7762.7762,0,0,1,.24.59.82.82,0,0,1-.84.84.7762.7762,0,0,1-.59-.24L7.47,8.32A.837.837,0,0,1,7.23,7.71Zm2.55,6.91a5.0473,5.0473,0,0,1,.7-2.6,5.2223,5.2223,0,0,1,1.91-1.91,5.13,5.13,0,0,1,4.62-.28,5.2244,5.2244,0,0,1,1.66,1.12,5.2473,5.2473,0,0,1,1.52,3.68,5.057,5.057,0,0,1-.7,2.61,5.2444,5.2444,0,0,1-1.9,1.9,5.2158,5.2158,0,0,1-5.22,0,5.2444,5.2444,0,0,1-1.9-1.9A5.313,5.313,0,0,1,9.78,14.62Zm1.7,0A3.5337,3.5337,0,0,0,15,18.16a3.5508,3.5508,0,0,0,3.54-3.54,3.3711,3.3711,0,0,0-1.04-2.47A3.4262,3.4262,0,0,0,15,11.13a3.3812,3.3812,0,0,0-2.48,1.02A3.3331,3.3331,0,0,0,11.48,14.62Zm2.66,7.78a.7855.7855,0,0,1,.25-.6.8468.8468,0,0,1,.6-.24.837.837,0,0,1,.61.24.8141.8141,0,0,1,.24.6v1.99a.8448.8448,0,0,1-.25.62.8161.8161,0,0,1-.6.25.8005.8005,0,0,1-.6-.25.8448.8448,0,0,1-.25-.62Zm0-15.5V4.86a.8161.8161,0,0,1,.25-.6A.8317.8317,0,0,1,15,4a.8005.8005,0,0,1,.6.25.8161.8161,0,0,1,.25.6V6.9a.7578.7578,0,0,1-.25.58.8375.8375,0,0,1-.6.23.8644.8644,0,0,1-.6-.23A.7869.7869,0,0,1,14.14,6.9Zm5.52,13.18a.7853.7853,0,0,1,.79-.79.847.847,0,0,1,.6.23l1.46,1.43a.87.87,0,0,1,.24.61.8073.8073,0,0,1-.24.59.89.89,0,0,1-1.2,0l-1.42-1.42A.9736.9736,0,0,1,19.66,20.08Zm0-10.92a.7753.7753,0,0,1,.23-.59L21.31,7.1a.8407.8407,0,0,1,.59-.24.7855.7855,0,0,1,.6.25.8161.8161,0,0,1,.25.6.8443.8443,0,0,1-.24.62L21.05,9.76a.8819.8819,0,0,1-.6.24.7263.7263,0,0,1-.56-.24A.847.847,0,0,1,19.66,9.16Zm2.26,5.46a.8943.8943,0,0,1,.24-.62.7787.7787,0,0,1,.57-.24h2.02a.8487.8487,0,0,1,.6,1.46.8161.8161,0,0,1-.6.25H22.73a.7433.7433,0,0,1-.58-.25A.8644.8644,0,0,1,21.92,14.62Z" transform="translate(-4.37 -0.91)"/><path d="M31.56,16.9a4.9221,4.9221,0,0,0,4.93,4.95H47.32a4.9456,4.9456,0,0,0,4.96-4.95,5.1667,5.1667,0,0,0-.42-2A5.0347,5.0347,0,0,0,53,11.6a5.2709,5.2709,0,0,0-.41-2.04,5.23,5.23,0,0,0-4.83-3.2A5.2061,5.2061,0,0,0,43.88,8.1a5.3482,5.3482,0,0,0-2.7-.66,5.9415,5.9415,0,0,0-5.81,4.66,4.7477,4.7477,0,0,0-2.74,1.73A4.8218,4.8218,0,0,0,31.56,16.9Zm1.71,0a3.0953,3.0953,0,0,1,.84-2.17,3.2812,3.2812,0,0,1,2.1-1.06l.5-.03a.1664.1664,0,0,0,.19-.18l.07-.54a4.2794,4.2794,0,0,1,1.41-2.71,4.0368,4.0368,0,0,1,2.81-1.09,4.1564,4.1564,0,0,1,2.87,1.1,3.99,3.99,0,0,1,1.37,2.71l.07.58a.1917.1917,0,0,0,.21.17h1.61a3.2786,3.2786,0,0,1,3.24,3.23,3.1853,3.1853,0,0,1-.95,2.32,3.0987,3.0987,0,0,1-2.28.96H36.49a3.0647,3.0647,0,0,1-2.27-.97A3.2181,3.2181,0,0,1,33.27,16.9Zm6.7-12.27a.9186.9186,0,0,0,.24.63l.66.64a.9363.9363,0,0,0,.64.25.7368.7368,0,0,0,.55-.26.8771.8771,0,0,0,.24-.62.758.758,0,0,0-.26-.59l-.59-.66a.8879.8879,0,0,0-.61-.24.8448.8448,0,0,0-.62.25A.7855.7855,0,0,0,39.97,4.63Zm5.34,4.43a3.54,3.54,0,0,1,6.01,2.54,3.7091,3.7091,0,0,1-.51,1.84A4.78,4.78,0,0,0,47.32,12H47A5.9637,5.9637,0,0,0,45.31,9.06Zm1.63-5.28a.8622.8622,0,0,0,.23.62.7689.7689,0,0,0,.59.23.8622.8622,0,0,0,.62-.23.8221.8221,0,0,0,.23-.62V1.73a.7915.7915,0,0,0-.24-.59.814.814,0,0,0-.61-.23.823.823,0,0,0-.59.23.7689.7689,0,0,0-.23.59Zm5.52,2.29a.8562.8562,0,0,0,.22.62,1.0337,1.0337,0,0,0,.62.24,1.0034,1.0034,0,0,0,.59-.24l1.43-1.43a.9256.9256,0,0,0,.24-.64.82.82,0,0,0-.83-.84.7543.7543,0,0,0-.58.24L52.68,5.45A.9612.9612,0,0,0,52.46,6.07Zm.79,11.84a.8838.8838,0,0,0,.25.63l.65.63a.7543.7543,0,0,0,.58.24.7855.7855,0,0,0,.6-.25.86.86,0,0,0,.24-.62.801.801,0,0,0-.24-.58l-.65-.65a.7787.7787,0,0,0-.57-.24.8141.8141,0,0,0-.6.24A.7942.7942,0,0,0,53.25,17.91Zm1.47-6.31a.7673.7673,0,0,0,.26.58.837.837,0,0,0,.61.24h2.04a.8162.8162,0,0,0,.58-.23.7689.7689,0,0,0,.23-.59.847.847,0,0,0-.23-.6.7779.7779,0,0,0-.58-.25H55.59a.8224.8224,0,0,0-.61.25A.7893.7893,0,0,0,54.72,11.6Z" transform="translate(-4.37 -0.91)"/><path d="M64.61,16.88a4.9434,4.9434,0,0,1,3.82-4.8,5.8935,5.8935,0,0,1,2.11-3.37,5.9635,5.9635,0,0,1,9.55,3.25h.33a4.9746,4.9746,0,0,1,2.49.65,4.7855,4.7855,0,0,1,1.81,1.79,4.8551,4.8551,0,0,1,.67,2.48,4.9447,4.9447,0,0,1-2.36,4.25,4.8486,4.8486,0,0,1-2.41.72H69.41a4.8707,4.8707,0,0,1-3.4-1.53A4.7486,4.7486,0,0,1,64.61,16.88Zm1.71,0a3.19,3.19,0,0,0,.9,2.26,3.15,3.15,0,0,0,2.19,1.03H80.6a3.11,3.11,0,0,0,2.19-1.03,3.1746,3.1746,0,0,0,.91-2.26,3.0746,3.0746,0,0,0-.98-2.27,3.1877,3.1877,0,0,0-2.32-.96H78.8c-.11,0-.17-.06-.17-.18l-.07-.57a4.09,4.09,0,0,0-1.4-2.72,4.1675,4.1675,0,0,0-2.86-1.1,4.1078,4.1078,0,0,0-2.85,1.1,4.0544,4.0544,0,0,0-1.37,2.72l-.08.57c0,.12-.07.18-.2.18h-.53a3.293,3.293,0,0,0-2.1,1.07A3.0979,3.0979,0,0,0,66.32,16.88Z" transform="translate(-4.37 -0.91)"/><path d="M93.89,17.6a4.2468,4.2468,0,0,1,3.31-4.14,5.1252,5.1252,0,0,1,8.16-2.91,4.9,4.9,0,0,1,1.8,2.8h.27a4.2507,4.2507,0,0,1,4.26,4.24,4.2678,4.2678,0,0,1-4.26,4.26H98.16a4.03,4.03,0,0,1-1.65-.34,4.0651,4.0651,0,0,1-2.28-2.25A4.1106,4.1106,0,0,1,93.89,17.6Zm1.45,0a2.69,2.69,0,0,0,.82,1.96,2.7248,2.7248,0,0,0,1.99.82h9.28a2.718,2.718,0,0,0,1.99-.82,2.677,2.677,0,0,0,.83-1.96,2.6235,2.6235,0,0,0-.83-1.96,2.7411,2.7411,0,0,0-1.99-.82h-1.39a.1326.1326,0,0,1-.15-.15l-.07-.49a3.6685,3.6685,0,0,0-6.1-2.34,3.4741,3.4741,0,0,0-1.18,2.34l-.07.42c0,.1-.05.15-.16.15l-.45.07a2.69,2.69,0,0,0-1.81.89A2.806,2.806,0,0,0,95.34,17.6Zm8.85-8.72c-.1.09-.08.16.07.21a8.9171,8.9171,0,0,1,1.08.55c.11.03.19.02.22-.03a3.0857,3.0857,0,0,1,5.21,1.95l.09.64h1.42a2.289,2.289,0,0,1,1.68.7,2.3084,2.3084,0,0,1,.08,3.23,2.3582,2.3582,0,0,1-1.53.77c-.1,0-.15.05-.15.16v1.13c0,.11.05.16.15.16a3.8143,3.8143,0,0,0,3.59-3.79,3.8239,3.8239,0,0,0-3.82-3.82h-.15a4.657,4.657,0,0,0-4.45-3.44A4.3915,4.3915,0,0,0,104.19,8.88Z" transform="translate(-4.37 -0.91)"/><path d="M124.6,16.93a4.737,4.737,0,0,1,1.09-3.08,4.7945,4.7945,0,0,1,2.78-1.73A5.9455,5.9455,0,0,1,134.3,7.4a5.9881,5.9881,0,0,1,5.84,4.58h.34a4.89,4.89,0,0,1,4.27,2.46,4.9746,4.9746,0,0,1,.65,2.49,4.82,4.82,0,0,1-1.37,3.44,4.692,4.692,0,0,1-3.37,1.5c-.12,0-.18-.06-.18-.17V20.36c0-.11.06-.17.18-.17a3.2967,3.2967,0,0,0,2.17-1.05,3.1145,3.1145,0,0,0,.9-2.22,3.1815,3.1815,0,0,0-.96-2.31,3.13,3.13,0,0,0-2.29-.97h-1.63a.2078.2078,0,0,1-.22-.18l-.07-.57a4.0657,4.0657,0,0,0-.7-1.94,4.2637,4.2637,0,0,0-3.55-1.85,4.1229,4.1229,0,0,0-2.86,1.09,4.0544,4.0544,0,0,0-1.37,2.72l-.07.54c0,.09-.05.14-.16.14l-.54.11a3.0937,3.0937,0,0,0-2.11,1.03,3.1321,3.1321,0,0,0-.85,2.2,3.1834,3.1834,0,0,0,.89,2.25,3.1155,3.1155,0,0,0,2.17,1.02c.12,0,.18.06.18.17v1.34c0,.11-.06.17-.18.17a5.0818,5.0818,0,0,1-1.88-.45,4.9567,4.9567,0,0,1-2.93-4.5Zm5.42,6.77a.8317.8317,0,0,1,.02-.13.8915.8915,0,0,0,.02-.11l.27-1.03a.8547.8547,0,0,1,.4-.51.7551.7551,0,0,1,.64-.07.8752.8752,0,0,1,.52.4.7551.7551,0,0,1,.07.64l-.24,1.01c-.13.44-.38.66-.76.66h-.09c-.03,0-.07-.01-.11-.01a.3751.3751,0,0,0-.1-.01.8528.8528,0,0,1-.48-.34A.8946.8946,0,0,1,130.02,23.7Zm1.32-4.82a.5384.5384,0,0,1,.01-.11.44.44,0,0,0,.01-.09l.3-1.05a.8712.8712,0,0,1,.32-.45.8429.8429,0,0,1,.47-.15h.08c.03,0,.06.01.09.01a.2485.2485,0,0,0,.08.01.8269.8269,0,0,1,.51.4.7551.7551,0,0,1,.07.64l-.24,1a.892.892,0,0,1-.4.59.6794.6794,0,0,1-.65.02.8024.8024,0,0,1-.49-.34A.8588.8588,0,0,1,131.34,18.88Zm1.23,7.95a1.05,1.05,0,0,1,.02-.13.9642.9642,0,0,0,.02-.12l.29-.99a.8528.8528,0,0,1,.4-.54.78.78,0,0,1,.65-.08.8351.8351,0,0,1,.51.41.8206.8206,0,0,1,.07.65l-.25,1.04a.7462.7462,0,0,1-.8.61.9652.9652,0,0,1-.24-.04.7176.7176,0,0,1-.49-.3A.8356.8356,0,0,1,132.57,26.83Zm1.34-4.77a.9626.9626,0,0,1,.04-.25l.27-1.03a.809.809,0,0,1,.41-.51.7775.7775,0,0,1,.65-.07.8066.8066,0,0,1,.57,1.04l-.24.99c-.13.45-.37.68-.72.68a1.8426,1.8426,0,0,1-.31-.06.7176.7176,0,0,1-.49-.3A.7815.7815,0,0,1,133.91,22.06Zm2.82,1.68a1.1209,1.1209,0,0,1,.03-.24l.28-.99a.8669.8669,0,0,1,.41-.54.7851.7851,0,0,1,.63-.09.874.874,0,0,1,.53.41.78.78,0,0,1,.09.63l-.29,1.06a.73.73,0,0,1-.79.61,1.09,1.09,0,0,1-.26-.03.7.7,0,0,1-.46-.3A1.2226,1.2226,0,0,1,136.73,23.74Zm1.38-4.76a2.4129,2.4129,0,0,1,.05-.26l.3-1.03a.6648.6648,0,0,1,.29-.47.8174.8174,0,0,1,.49-.14.6018.6018,0,0,1,.24.03.8261.8261,0,0,1,.52.38.7459.7459,0,0,1,.07.65l-.24,1.03a.7707.7707,0,0,1-.76.65,1.8411,1.8411,0,0,1-.34-.06.8234.8234,0,0,1-.46-.31A.8064.8064,0,0,1,138.11,18.98Z" transform="translate(-4.37 -0.91)"/><path d="M154.64,16.91a4.9487,4.9487,0,0,1,3.81-4.8,5.9012,5.9012,0,0,1,2.11-3.36,5.9592,5.9592,0,0,1,9.53,3.26h.32a4.9647,4.9647,0,0,1,2.48.65,4.8762,4.8762,0,0,1,2.48,4.25,4.9445,4.9445,0,0,1-2.36,4.24,4.7037,4.7037,0,0,1-2.4.71c-.13,0-.2-.06-.2-.17V20.36c0-.12.07-.18.2-.18a3.095,3.095,0,0,0,2.18-1.02,3.19,3.19,0,0,0,.9-2.26,3.069,3.069,0,0,0-.98-2.26,3.1815,3.1815,0,0,0-2.31-.96h-1.61c-.12,0-.18-.06-.18-.17l-.08-.58a4.0758,4.0758,0,0,0-1.39-2.71,4.2709,4.2709,0,0,0-5.7,0,4.02,4.02,0,0,0-1.36,2.71l-.07.53a.1767.1767,0,0,1-.2.19l-.53.03a3.3419,3.3419,0,0,0-2.1,1.07,3.0542,3.0542,0,0,0-.85,2.16,3.19,3.19,0,0,0,.9,2.26,3.095,3.095,0,0,0,2.18,1.02c.11,0,.17.06.17.18V21.7a.153.153,0,0,1-.17.17,4.8707,4.8707,0,0,1-3.4-1.53A4.7309,4.7309,0,0,1,154.64,16.91Zm5.35,6.69a.6822.6822,0,0,1,.04-.2l1.63-5.77a.8078.8078,0,0,1,.32-.44.8368.8368,0,0,1,.46-.15,1.1209,1.1209,0,0,1,.24.03.7522.7522,0,0,1,.54.37.8158.8158,0,0,1,.08.67l-1.63,5.73a.7868.7868,0,0,1-.82.64.4253.4253,0,0,1-.11-.02.6472.6472,0,0,0-.1-.03.8312.8312,0,0,1-.49-.33A.8946.8946,0,0,1,159.99,23.6Zm2.62,2.81,2.44-8.77a.6589.6589,0,0,1,.3-.44.906.906,0,0,1,.49-.15,1.2413,1.2413,0,0,1,.27.03.7677.7677,0,0,1,.49.39.8343.8343,0,0,1,.07.64l-2.43,8.78a.7266.7266,0,0,1-.29.43.8147.8147,0,0,1-.51.18.6551.6551,0,0,1-.25-.05.9175.9175,0,0,1-.52-.39A.7925.7925,0,0,1,162.61,26.41Zm4.13-2.79a1.0663,1.0663,0,0,1,.04-.23l1.63-5.77a.83.83,0,0,1,.3-.44.8124.8124,0,0,1,.46-.15,1.2216,1.2216,0,0,1,.26.03.7769.7769,0,0,1,.46.31.8429.8429,0,0,1,.15.47,1.1475,1.1475,0,0,1-.02.14c-.01.06-.02.1-.02.12l-1.63,5.73a.7384.7384,0,0,1-.28.46.8453.8453,0,0,1-.51.17l-.24-.05a.8088.8088,0,0,1-.46-.32A.9158.9158,0,0,1,166.74,23.62Z" transform="translate(-4.37 -0.91)"/><path d="M184.63,16.91a4.7852,4.7852,0,0,0,.99,2.97,4.9617,4.9617,0,0,0,2.58,1.79l-.66,1.68c-.03.14.02.22.14.22h2.13l-.98,4.3h.28l3.92-5.75a.1063.1063,0,0,0,.01-.14.1579.1579,0,0,0-.15-.07h-2.18l2.48-4.64c.07-.14.02-.22-.14-.22h-2.94a.2683.2683,0,0,0-.23.15l-1.07,2.87a3.2351,3.2351,0,0,1-1.77-1.16,3.1346,3.1346,0,0,1-.7-2.01,3.0949,3.0949,0,0,1,.85-2.17,3.3419,3.3419,0,0,1,2.1-1.07l.53-.07c.13,0,.2-.06.2-.18l.07-.51a4.26,4.26,0,0,1,8.47,0l.07.58c0,.11.06.17.18.17h1.6a3.1853,3.1853,0,0,1,2.32.95,3.1764,3.1764,0,0,1,.08,4.49,3.3152,3.3152,0,0,1-2.2,1.04c-.13,0-.2.06-.2.18v1.37c0,.11.07.17.2.17a4.954,4.954,0,0,0,4.78-4.96,4.7946,4.7946,0,0,0-.67-2.49,4.8844,4.8844,0,0,0-1.81-1.8,4.9453,4.9453,0,0,0-2.5-.66h-.31a5.9878,5.9878,0,0,0-11.65.14,4.9434,4.9434,0,0,0-3.82,4.83Zm8.14,9.71a.7423.7423,0,0,0,.58.77.6612.6612,0,0,1,.11.01.817.817,0,0,0,.14.01.906.906,0,0,0,.49-.15.73.73,0,0,0,.32-.48l2.25-8.69a.8541.8541,0,0,0-.07-.65.8269.8269,0,0,0-.5-.39c-.17-.02-.26-.03-.26-.03a.8429.8429,0,0,0-.47.15.7409.7409,0,0,0-.31.45l-2.26,8.72C192.78,26.44,192.77,26.53,192.77,26.62Zm4.16-3.06a.7457.7457,0,0,0,.1.38,1.0154,1.0154,0,0,0,.51.44,1.1728,1.1728,0,0,0,.3.05.7148.7148,0,0,0,.32-.08.7613.7613,0,0,0,.42-.57l1.44-5.67a2.05,2.05,0,0,0,.05-.27.7507.7507,0,0,0-.16-.45.8583.8583,0,0,0-.46-.32c-.17-.02-.26-.03-.26-.03a.7968.7968,0,0,0-.47.15.82.82,0,0,0-.3.45l-1.46,5.7a.594.594,0,0,1-.01.11A.2557.2557,0,0,0,196.93,23.56Z" transform="translate(-4.37 -0.91)"/><path d="M242.62,21.05a.8071.8071,0,0,1,.25-.61.8842.8842,0,0,1,.63-.24h18.67a.8212.8212,0,0,1,.85.85.7433.7433,0,0,1-.25.58.8375.8375,0,0,1-.6.23H243.5a.9216.9216,0,0,1-.63-.23A.7578.7578,0,0,1,242.62,21.05Zm2.62-3.14a.7942.7942,0,0,1,.26-.6.8066.8066,0,0,1,.59-.23h18.67a.8031.8031,0,0,1,.81.83.847.847,0,0,1-.23.6.7578.7578,0,0,1-.58.25H246.09a.7855.7855,0,0,1-.6-.25A.8161.8161,0,0,1,245.24,17.91Zm.13-2.39c0,.09.05.13.15.13h1.43c.06,0,.13-.05.2-.16a3.1136,3.1136,0,0,1,1.06-1.27,3.0416,3.0416,0,0,1,1.55-.56l.55-.07c.11,0,.17-.06.17-.18l.07-.5a4.03,4.03,0,0,1,1.37-2.7,4.289,4.289,0,0,1,5.68-.01,4.0262,4.0262,0,0,1,1.37,2.68l.08.57c0,.11.07.17.2.17h1.59a3.1293,3.1293,0,0,1,1.76.52,3.1954,3.1954,0,0,1,1.18,1.37c.07.11.14.16.21.16h1.43c.12,0,.17-.07.14-.23a4.7047,4.7047,0,0,0-1.74-2.51,4.8292,4.8292,0,0,0-2.97-.97h-.32a5.873,5.873,0,0,0-2.1-3.27,5.6922,5.6922,0,0,0-3.65-1.27,5.7681,5.7681,0,0,0-3.73,1.32,5.8705,5.8705,0,0,0-2.09,3.36,4.7777,4.7777,0,0,0-2.24,1.21,4.8522,4.8522,0,0,0-1.34,2.18v-.04C245.37,15.45,245.37,15.48,245.37,15.52Zm1.61,8.59a.7729.7729,0,0,1,.26-.59.8141.8141,0,0,1,.6-.23h18.68a.847.847,0,0,1,.6.23.7578.7578,0,0,1,.25.58.8536.8536,0,0,1-.85.86H247.84a.8261.8261,0,0,1-.6-.26A.7729.7729,0,0,1,246.98,24.11Z" transform="translate(-4.37 -0.91)"/></svg>